<?xml version="1.0" encoding="UTF-8"?>
<!DOCTYPE svg PUBLIC "-//W3C//DTD SVG 1.1//EN" "http://www.w3.org/Graphics/SVG/1.1/DTD/svg11.dtd">
<!-- Creator: CorelDRAW 2020 (64-Bit) -->
<svg xmlns="http://www.w3.org/2000/svg" xml:space="preserve" width="56.4444mm" height="37.6202mm" version="1.1" style="shape-rendering:geometricPrecision; text-rendering:geometricPrecision; image-rendering:optimizeQuality; fill-rule:evenodd; clip-rule:evenodd"
viewBox="0 0 5644.44 3762.02"
 xmlns:xlink="http://www.w3.org/1999/xlink"
 xmlns:xodm="http://www.corel.com/coreldraw/odm/2003">
 <defs>
  <style type="text/css">
   <![CDATA[
    .fil1 {fill:url(#id0);fill-rule:nonzero}
    .fil2 {fill:url(#id1);fill-rule:nonzero}
    .fil0 {fill:url(#id2);fill-rule:nonzero}
   ]]>
  </style>
  <linearGradient id="id0" gradientUnits="userSpaceOnUse" x1="1357.41" y1="3520.64" x2="1353.94" y2="2631.56">
   <stop offset="0" style="stop-opacity:1; stop-color:#00FFD2"/>
   <stop offset="1" style="stop-opacity:1; stop-color:#8C2BFF"/>
  </linearGradient>
  <linearGradient id="id1" gradientUnits="userSpaceOnUse" xlink:href="#id0" x1="1392.98" y1="2590.83" x2="1400.73" y2="3118.8">
  </linearGradient>
  <linearGradient id="id2" gradientUnits="userSpaceOnUse" xlink:href="#id0" x1="1226.6" y1="2593.58" x2="1234.39" y2="3124.95">
  </linearGradient>
 </defs>
 <g id="Capa_x0020_1">
  <metadata id="CorelCorpID_0Corel-Layer"/>
  <path class="fil0" d="M1429.04 2716.98l0 114.46 -59.93 0 0 -54.54 -243.73 0 0 251.86c18.75,10.53 31.42,30.57 31.42,53.59 0,33.9 -27.48,61.38 -61.38,61.38 -33.9,0 -61.38,-27.48 -61.38,-61.38 0,-23.02 12.67,-43.06 31.42,-53.59l0 -311.78 363.58 0z"/>
  <path class="fil1" d="M1756.75 2831.44l0 579.99 -802.84 0 0 -802.92 570.84 0c11.56,-26.2 37.75,-44.52 68.23,-44.52 41.18,0 74.56,33.31 74.56,74.48 0,41.18 -33.38,74.57 -74.56,74.57 -30.57,0 -56.67,-18.32 -68.23,-44.6l-510.92 0 0 683.07 682.99 0 0 -460.15 -460.15 0 0 304.08 79.28 0 0 0.26 224.81 0 0 -100.16c-22.95,-10.11 -39.73,-31.42 -43.66,-57.02 -0.6,-3.68 -0.86,-7.44 -0.86,-11.3 0,-41.17 33.3,-74.56 74.48,-74.56 41.18,0 74.56,33.39 74.56,74.56 0,30.56 -18.31,56.76 -44.6,68.32l0 160.08 -284.73 0 0 -0.25 -139.2 0 0 -423.93 580 0z"/>
  <path class="fil2" d="M1460.37 3053.93c0,33.9 -27.48,61.38 -61.3,61.38 -33.9,0 -61.38,-27.48 -61.38,-61.38 0,-23.03 12.67,-43.06 31.42,-53.5l0 -109.07 59.93 0 0 109.07c15.24,8.56 26.45,23.45 30.05,41.18 0.85,3.93 1.28,8.04 1.28,12.32z"/>
 </g>
</svg>
