<?xml version="1.0" encoding="UTF-8"?>
<!DOCTYPE svg PUBLIC "-//W3C//DTD SVG 1.1//EN" "http://www.w3.org/Graphics/SVG/1.1/DTD/svg11.dtd">
<!-- Creator: CorelDRAW 2020 (64-Bit) -->
<svg xmlns="http://www.w3.org/2000/svg" xml:space="preserve" width="56.4444mm" height="37.6202mm" version="1.1" style="shape-rendering:geometricPrecision; text-rendering:geometricPrecision; image-rendering:optimizeQuality; fill-rule:evenodd; clip-rule:evenodd"
viewBox="0 0 5644.44 3762.02"
 xmlns:xlink="http://www.w3.org/1999/xlink"
 xmlns:xodm="http://www.corel.com/coreldraw/odm/2003">
 <defs>
  <style type="text/css">
   <![CDATA[
    .fil0 {fill:#03A8B5;fill-rule:nonzero}
   ]]>
  </style>
 </defs>
 <g id="Capa_x0020_1">
  <metadata id="CorelCorpID_0Corel-Layer"/>
  <g id="_1997009185568">
   <path class="fil0" d="M2847.38 849.94l0 349.79 -183.14 0 0 -166.65 -744.86 0 0 769.7c57.3,32.18 96.02,93.4 96.02,163.78 0,103.6 -83.99,187.58 -187.59,187.58 -103.61,0 -187.59,-83.98 -187.59,-187.58 0,-70.38 38.72,-131.6 96.02,-163.78l0 -952.84 1111.14 0z"/>
   <path class="fil0" d="M3848.89 1199.73l0 1772.53 -2453.55 0 0 -2453.81 1744.54 0c35.32,-80.06 115.38,-136.05 208.52,-136.05 125.84,0 227.87,101.78 227.87,227.62 0,125.84 -102.03,227.88 -227.87,227.88 -93.41,0 -173.2,-55.99 -208.52,-136.31l-1561.4 0 0 2087.52 2087.27 0 0 -1406.24 -1406.26 0 0 929.3 242.28 0 0 0.79 687.03 0 0 -306.11c-70.11,-30.87 -121.4,-96.01 -133.43,-174.24 -1.83,-11.25 -2.62,-22.76 -2.62,-34.53 0,-125.84 101.78,-227.88 227.62,-227.88 125.85,0 227.88,102.04 227.88,227.88 0,93.4 -55.99,173.45 -136.31,208.77l0 489.24 -870.17 0 0 -0.78 -425.41 0 0 -1295.58 1772.53 0z"/>
   <path class="fil0" d="M2943.13 1879.71c0,103.59 -83.98,187.57 -187.33,187.57 -103.6,0 -187.58,-83.98 -187.58,-187.57 0,-70.38 38.72,-131.61 96.02,-163.52l0 -333.32 183.14 0 0 333.32c46.57,26.16 80.84,71.68 91.83,125.84 2.62,12.04 3.92,24.59 3.92,37.68z"/>
  </g>
 </g>
</svg>
